<svg width="225" height="132" viewBox="0 0 225 132" fill="none" xmlns="http://www.w3.org/2000/svg">
<g clip-path="url(#clip0_0_1)">
<path d="M98.457 79.0974C94.2548 80.8879 89.8525 81.574 85.3168 81.6409C80.8311 81.7079 76.5455 80.9214 72.4767 79.0305C70.8425 78.1603 69.3084 77.1229 67.8743 75.9515C66.2234 74.3116 64.7226 72.5881 63.6888 70.4796C62.3214 67.7186 61.9378 64.8069 62.0712 61.728C62.238 58.2139 62.8883 54.7668 63.4553 51.3197C63.522 50.9348 63.4887 50.5499 63.5053 50.1651L63.4887 50.1818C63.6054 50.1651 63.6054 50.0981 63.5887 50.0145C63.9222 47.4542 63.8055 44.8773 63.7888 42.3003C63.8055 37.6484 63.8222 32.9964 63.8055 28.3445C63.8055 26.6377 63.9889 24.9476 64.4058 23.3077C64.5726 22.6718 64.4558 22.4041 63.8222 22.1363C60.8539 20.9148 59.67 18.5553 60.5204 15.56C61.0707 13.6022 62.4715 12.6149 64.3891 12.2133C66.2401 11.8284 67.9243 12.1798 69.3918 13.3847C69.6586 13.6022 69.8253 13.7193 70.1588 13.4349C73.5439 10.4228 77.5961 8.98374 82.0484 8.63233C86.8509 8.26419 91.5701 8.68253 96.1225 10.3559C97.7233 10.9416 99.2074 11.7615 100.541 12.8157C100.892 13.1002 101.158 13.2173 101.625 12.9161C103.626 11.6611 105.727 11.8284 107.729 12.8827C109.496 13.8197 110.03 15.4764 110.03 17.384C110.03 19.3418 109.146 20.8478 107.445 21.6176C106.261 22.1531 106.194 22.8057 106.344 23.8934C106.678 26.3867 106.495 28.8967 106.411 31.4067C106.294 34.8873 106.328 38.3679 106.395 41.8485C106.395 41.9823 106.461 42.1162 106.511 42.2501C106.461 44.9777 106.761 47.6718 107.095 50.3659C107.128 50.4161 107.162 50.4663 107.195 50.5165L107.178 50.4997C107.228 52.5245 107.595 54.5325 107.779 56.5406C108.079 59.8036 108.579 63.0667 108.129 66.3464C107.595 70.2286 105.844 73.5084 102.993 76.1858C101.575 77.3069 100.058 78.2775 98.457 79.0974ZM81.6315 35.2555C81.6315 36.4603 81.6148 37.6484 81.6482 38.8532C81.6649 39.7568 82.2152 40.4596 83.0322 40.5935C84.0494 40.7608 84.6998 40.2421 85.1333 39.3552C85.2167 39.4054 85.2668 39.4221 85.3001 39.4723C85.8337 40.3927 86.5841 40.7943 87.3845 40.5767C88.2517 40.3425 88.6852 39.7066 88.7019 38.6022C88.7019 37.481 88.7019 36.3766 88.7019 35.2555C88.902 35.2555 89.0854 35.2555 89.2855 35.2555C91.5867 35.3224 92.7373 33.9335 92.1704 31.6745C91.7201 29.884 90.4028 28.9302 88.7186 28.3947C88.7853 27.6919 88.4184 27.2233 87.8181 26.9556C86.0672 26.1357 84.2996 26.1357 82.5487 26.9556C81.9483 27.2401 81.5815 27.6919 81.6482 28.3947C79.7472 29.0138 78.3965 30.1517 78.0796 32.2434C77.8295 33.9837 78.9134 35.2387 80.6643 35.2722C80.9645 35.2722 81.298 35.2555 81.6315 35.2555ZM94.0547 28.1102C98.0234 28.1102 101.158 24.981 101.175 21.0319C101.192 17.0661 97.9901 13.8699 94.038 13.8699C90.1193 13.8699 86.9843 17.0493 86.9843 21.0152C86.9676 24.981 90.0859 28.1102 94.0547 28.1102ZM83.3491 21.0319C83.3491 17.0493 80.2475 13.8867 76.3287 13.8699C72.3767 13.8532 69.1583 17.0661 69.1583 21.0152C69.1583 24.9643 72.2933 28.1102 76.2454 28.1102C80.2141 28.1102 83.3491 24.9978 83.3491 21.0319ZM65.6398 15.6772C64.6893 15.6939 64.0223 16.2461 63.8388 17.0995C63.6721 17.9195 64.1557 18.7729 64.9561 19.1075C65.473 19.3251 65.8399 19.2582 66.09 18.7059C66.3402 18.1872 66.6403 17.6685 66.9571 17.1999C67.2406 16.7816 67.1406 16.4804 66.8071 16.1792C66.4736 15.811 66.0567 15.6437 65.6398 15.6772ZM104.96 15.6772C104.393 15.6772 103.96 15.6604 103.776 15.9784C103.61 16.2628 103.993 16.4971 104.127 16.7648C104.427 17.384 104.777 17.9864 105.044 18.6223C105.261 19.1076 105.494 19.1076 105.844 18.7896C106.428 18.2541 106.678 17.6183 106.395 16.8485C106.111 16.0955 105.577 15.6939 104.96 15.6772Z" fill="#4DCFE0"/>
<path d="M67.8742 75.9519C69.3083 77.1233 70.8424 78.1607 72.4766 79.0476C71.3094 80.2022 70.1588 81.3569 68.9915 82.5115C68.0243 83.4653 66.907 83.6996 65.8065 83.1808C64.7059 82.6621 64.189 81.6413 64.3224 80.2692C64.3891 79.6166 64.7559 79.1313 65.1895 78.6962C66.0733 77.7759 66.9737 76.8723 67.8742 75.9519Z" fill="#FDCC81"/>
<path d="M98.4575 79.0976C100.058 78.2609 101.576 77.3071 102.977 76.1692C103.877 77.0728 104.811 77.943 105.695 78.88C106.762 80.0012 106.745 81.5741 105.711 82.6284C104.644 83.716 103.043 83.716 101.909 82.5949C100.742 81.457 99.6081 80.2689 98.4575 79.0976Z" fill="#FDCC81"/>
<path d="M63.7888 42.2839C63.8055 44.8609 63.9222 47.4379 63.5887 49.9981C63.5553 50.0483 63.522 50.1152 63.4886 50.1654L63.5053 50.1487C63.1718 50.3997 62.8716 50.6842 62.5215 50.9017C61.3709 51.638 60.0035 51.387 59.0863 50.3328C58.2526 49.3622 58.2359 47.8227 59.1364 46.9024C60.6705 45.3462 62.238 43.8234 63.7888 42.2839Z" fill="#FDCC81"/>
<path d="M107.062 50.3487C106.728 47.6546 106.428 44.9605 106.478 42.2329C108.012 43.7557 109.58 45.2617 111.081 46.8179C112.098 47.8721 112.064 49.3949 111.097 50.4491C110.147 51.4866 108.646 51.6037 107.479 50.7168C107.362 50.6332 107.262 50.5495 107.145 50.4826L107.162 50.4993C107.128 50.4491 107.095 50.3989 107.062 50.3487Z" fill="#FDCC81"/>
<path d="M94.0548 28.1106C90.1027 28.1106 86.9844 24.9982 86.9844 21.0156C86.9844 17.0497 90.1027 13.8704 94.0381 13.8704C97.9902 13.8704 101.192 17.0665 101.175 21.0323C101.158 24.9815 98.0068 28.0939 94.0548 28.1106ZM90.4695 22.7559C91.4701 22.7559 92.2872 21.9527 92.2705 20.9654C92.2538 20.0116 91.4534 19.2251 90.5029 19.2084C89.519 19.1916 88.6853 20.0283 88.7019 21.0156C88.7353 21.9861 89.519 22.7559 90.4695 22.7559Z" fill="#F3F4F4"/>
<path d="M83.35 21.0324C83.35 24.9983 80.215 28.1274 76.2629 28.1107C72.2942 28.094 69.1592 24.9648 69.1592 21.0157C69.1592 17.0665 72.3775 13.8537 76.3296 13.8704C80.2483 13.8704 83.35 17.0498 83.35 21.0324ZM72.6777 22.756C73.6782 22.7727 74.4953 21.9862 74.4786 20.9822C74.4786 20.0284 73.6782 19.2252 72.7277 19.2084C71.7605 19.1917 70.9768 19.9447 70.9435 20.9153C70.9268 21.9527 71.6772 22.7392 72.6777 22.756Z" fill="#F3F4F4"/>
<path d="M88.7026 28.4114C90.3868 28.9469 91.6875 29.9007 92.1544 31.6912C92.7213 33.9502 91.5874 35.3391 89.2695 35.2721C89.0694 35.2721 88.886 35.2721 88.6859 35.2721C86.3347 34.2179 83.9834 34.2179 81.6322 35.2721C81.2987 35.2721 80.9652 35.2889 80.6317 35.2889C78.8807 35.2721 77.7968 34.0171 78.047 32.2601C78.3471 30.1684 79.6978 29.0305 81.6155 28.4114C81.7989 28.7962 82.0658 29.0975 82.4493 29.2983C84.2169 30.1684 86.0012 30.1684 87.7687 29.3485C88.2023 29.1309 88.5025 28.8297 88.7026 28.4114Z" fill="#FDCC81"/>
<path d="M81.6324 35.2557C83.9836 34.2015 86.3349 34.2015 88.6861 35.2557C88.6861 36.3769 88.6861 37.4813 88.6861 38.6025C88.6861 39.7069 88.2526 40.3428 87.3688 40.577C86.5683 40.7946 85.8179 40.393 85.2843 39.4726C85.2677 39.4391 85.201 39.4057 85.1176 39.3555C84.7007 40.2424 84.0337 40.7611 83.0165 40.5938C82.1994 40.4599 81.6491 39.7571 81.6324 38.8535C81.6157 37.6487 81.6324 36.4606 81.6324 35.2557Z" fill="#ECEDEC"/>
<path d="M88.7032 28.4118C88.5031 28.8301 88.2029 29.1481 87.786 29.3321C86.0018 30.1521 84.2342 30.1521 82.4666 29.2819C82.083 29.0979 81.8162 28.7799 81.6328 28.3951C81.5661 27.6922 81.9329 27.2404 82.5333 26.956C84.2842 26.1193 86.0518 26.136 87.8027 26.956C88.3863 27.2404 88.7699 27.6922 88.7032 28.4118Z" fill="#444443"/>
<path d="M65.6403 15.677C66.0572 15.6435 66.4741 15.8276 66.841 16.1623C67.1578 16.4635 67.2578 16.7647 66.991 17.183C66.6742 17.6683 66.3574 18.1703 66.1239 18.689C65.8571 19.258 65.5069 19.3082 64.99 19.0906C64.1729 18.756 63.6893 17.9193 63.8727 17.0826C64.0228 16.2459 64.7065 15.6937 65.6403 15.677Z" fill="#444443"/>
<path d="M104.961 15.6767C105.578 15.6934 106.111 16.095 106.395 16.8647C106.678 17.6345 106.428 18.2704 105.844 18.8058C105.494 19.1238 105.261 19.1238 105.044 18.6385C104.777 18.0026 104.427 17.4002 104.127 16.7811C103.993 16.5133 103.61 16.2791 103.777 15.9946C103.96 15.6599 104.394 15.6767 104.961 15.6767Z" fill="#444443"/>
<path d="M63.4893 50.1647C63.5226 50.1144 63.556 50.0475 63.5893 49.9973C63.606 50.081 63.606 50.1647 63.4893 50.1647Z" fill="#FEFEFE"/>
<path d="M90.4695 22.7553C89.5023 22.7553 88.7186 21.9688 88.7019 21.015C88.6852 20.0444 89.519 19.2078 90.5029 19.2078C91.4534 19.2245 92.2538 20.011 92.2704 20.9648C92.2871 21.9521 91.47 22.772 90.4695 22.7553Z" fill="#444443"/>
<path d="M72.6776 22.7556C71.6604 22.7388 70.9267 21.9523 70.9601 20.9149C70.9934 19.9443 71.7938 19.1913 72.7443 19.208C73.6948 19.2248 74.4786 20.028 74.4953 20.9818C74.4953 21.9858 73.6948 22.7723 72.6776 22.7556Z" fill="#444443"/>
</g>
<path d="M154.608 54.8747C154.1 56.4481 152.366 58.4412 149.789 60.7909C146.347 63.9064 141.764 67.4153 137.694 70.4679C128.563 77.1971 119.328 83.8424 110.323 90.7343C96.0017 101.612 81.4758 112.249 66.8399 122.702C63.3773 125.131 59.2757 127.821 55.8394 129.563C52.8954 131.057 50.5015 131.828 48.8724 131.692C41.2349 130.821 52.4292 111.504 54.226 106.474C57.3532 99.4828 59.5324 90.556 56.908 84.0313C51.3292 69.1409 29.4277 65.3593 19.1815 54.9376C14.1789 48.843 33.2097 49.9234 36.5151 49.7346C63.435 49.8238 108.951 49.9549 137.013 50.0493C145.033 50.0755 150.978 50.4322 153.409 51.8903C154.53 52.5039 155.064 53.6106 154.624 54.8432L154.613 54.8799L154.608 54.8747Z" fill="#4DCFE0"/>
<path d="M0.308213 4.55958C-2.9186 -0.627667 20.1303 0.0386099 25.6567 0.0176301C77.6839 0.0281198 169.37 -0.0140516 213.22 0.0331525C217.029 0.0751116 221.581 0.23246 224.624 1.30765C236.018 5.44589 211.895 22.4132 205.939 25.8329C199.847 29.4519 193.446 32.5937 186.866 35.148C173.006 40.5922 157.851 42.7324 143.053 42.2761C136.167 42.1047 129.489 41.1966 122.658 39.8375C119.247 39.1589 117.668 35.2197 118.32 31.8038C118.534 30.6863 118.644 29.5444 118.644 28.3836C118.644 14.9023 103.776 3.97362 85.4349 3.97361C72.2228 3.97361 60.8125 9.64464 55.4642 17.8559C54.0253 20.065 51.4253 21.4837 48.8764 20.8101C39.7714 18.4039 30.3925 15.9285 22.3826 13.7699C15.9946 12.2061 1.49173 7.18481 0.333387 4.60283C0.326272 4.58697 0.318525 4.57357 0.308213 4.55958Z" fill="#4DCFE0"/>
<defs>
<clipPath id="clip0_0_1">
<rect width="53.3613" height="74.933" fill="white" transform="translate(58.4702 8.51514)"/>
</clipPath>
</defs>
</svg>
